<svg width="20" height="20" viewBox="0 0 20 20" fill="none" xmlns="http://www.w3.org/2000/svg">
<path d="M7.35004 4.0832L6.28338 2.31653C5.88338 1.66653 5.09171 1.29987 4.35004 1.51653C3.23338 1.84987 2.80004 3.1082 3.35838 4.0332L4.45838 5.84153C4.58338 6.0332 4.84171 6.09987 5.03338 5.9832L7.20838 4.6582C7.40838 4.5332 7.47504 4.27487 7.35004 4.0832Z" fill="white"/>
<path d="M16.45 11.8415L14.1084 8.67487C13.2917 7.57487 11.875 7.0582 10.5417 7.41653C10.5417 7.4082 10.5334 7.4082 10.5334 7.39987L9.15002 5.12487C8.90002 4.7332 8.38335 4.6082 7.99169 4.84987L5.10002 6.6082C4.70002 6.84153 4.57502 7.36653 4.81669 7.76653L6.19169 10.0415C6.19169 10.0415 6.19169 10.0499 6.20002 10.0499C5.27502 11.0749 5.07502 12.5665 5.69169 13.8082L7.42502 17.3415C7.95835 18.4332 9.21669 18.8499 10.2834 18.2999C10.3667 18.2582 10.3917 18.1582 10.3417 18.0749L9.04169 15.9249C8.85835 15.6249 8.95002 15.2415 9.25002 15.0499C9.55002 14.8749 9.93335 14.9665 10.125 15.2582L11.4334 17.4082C11.4834 17.4832 11.5834 17.5082 11.6584 17.4665L12.4584 16.9832C12.5334 16.9332 12.5584 16.8332 12.5167 16.7582L11.2084 14.6082C11.0334 14.3082 11.125 13.9249 11.4167 13.7332C11.725 13.5582 12.1084 13.6499 12.2917 13.9415L13.6 16.0915C13.65 16.1665 13.75 16.1915 13.825 16.1499L14.625 15.6665C14.7 15.6165 14.725 15.5165 14.6834 15.4415L13.375 13.2915C13.2 12.9915 13.2917 12.6082 13.5834 12.4165C13.8917 12.2415 14.275 12.3332 14.4584 12.6249L15.775 14.7665C15.825 14.8415 15.925 14.8665 16 14.8165C16.9667 14.1249 17.1834 12.8249 16.45 11.8415Z" fill="white"/>
</svg>
