<svg width="20" height="20" viewBox="0 0 20 20" fill="none" xmlns="http://www.w3.org/2000/svg">
<path d="M8.22509 4.72525L5.37509 6.45859L4.0751 4.32526C3.6001 3.54193 3.85009 2.5086 4.63343 2.0336C5.41676 1.5586 6.45009 1.80858 6.92509 2.59191L8.22509 4.72525Z" stroke="#CF172F" stroke-linecap="round" stroke-linejoin="round"/>
<path d="M9.8501 7.63333L7.21676 9.23336C5.68343 10.1667 5.21676 12.05 5.95842 13.55L7.66676 17.0333C8.21676 18.1583 9.5501 18.55 10.6168 17.8917L15.9751 14.6333C17.0501 13.9833 17.3084 12.625 16.5668 11.6167L14.2584 8.50002C13.2584 7.15002 11.3834 6.69999 9.8501 7.63333Z" stroke="#CF172F" stroke-linecap="round" stroke-linejoin="round"/>
<path d="M8.96386 4.24813L4.69336 6.84863L6.42703 9.69563L10.6975 7.09513L8.96386 4.24813Z" stroke="#CF172F" stroke-linecap="round" stroke-linejoin="round"/>
<path d="M11.9253 14.0088L13.3003 16.2671" stroke="#CF172F" stroke-linecap="round" stroke-linejoin="round"/>
<path d="M9.79163 15.3086L11.1666 17.5669" stroke="#CF172F" stroke-linecap="round" stroke-linejoin="round"/>
<path d="M14.0586 12.708L15.4336 14.9664" stroke="#CF172F" stroke-linecap="round" stroke-linejoin="round"/>
</svg>
