<svg width="22" height="22" viewBox="0 0 22 22" fill="none" xmlns="http://www.w3.org/2000/svg">
<path d="M19.9375 7.33341C19.9375 7.70924 19.6258 8.02091 19.25 8.02091H2.75C2.37417 8.02091 2.0625 7.70924 2.0625 7.33341C2.0625 6.95757 2.37417 6.64591 2.75 6.64591H3.685L4.03333 4.98674C4.36333 3.38257 5.05083 1.90674 7.7825 1.90674H14.2175C16.9492 1.90674 17.6367 3.38257 17.9667 4.98674L18.315 6.64591H19.25C19.6258 6.64591 19.9375 6.95757 19.9375 7.33341Z" fill="white"/>
<path d="M20.3318 12.5218C20.1943 11.0093 19.791 9.396 16.8485 9.396H5.15179C2.20929 9.396 1.81512 11.0093 1.66845 12.5218L1.15512 18.1043C1.09095 18.801 1.32012 19.4977 1.79679 20.0202C2.28262 20.5518 2.97012 20.8543 3.70345 20.8543H5.42679C6.91179 20.8543 7.19595 20.0018 7.37929 19.4427L7.56262 18.8927C7.77345 18.2602 7.82845 18.1043 8.65345 18.1043H13.3468C14.1718 18.1043 14.1993 18.196 14.4376 18.8927L14.621 19.4427C14.8043 20.0018 15.0885 20.8543 16.5735 20.8543H18.2968C19.021 20.8543 19.7176 20.5518 20.2035 20.0202C20.6801 19.4977 20.9093 18.801 20.8451 18.1043L20.3318 12.5218ZM8.25012 14.4377H5.50012C5.12429 14.4377 4.81262 14.126 4.81262 13.7502C4.81262 13.3743 5.12429 13.0627 5.50012 13.0627H8.25012C8.62595 13.0627 8.93762 13.3743 8.93762 13.7502C8.93762 14.126 8.62595 14.4377 8.25012 14.4377ZM16.5001 14.4377H13.7501C13.3743 14.4377 13.0626 14.126 13.0626 13.7502C13.0626 13.3743 13.3743 13.0627 13.7501 13.0627H16.5001C16.876 13.0627 17.1876 13.3743 17.1876 13.7502C17.1876 14.126 16.876 14.4377 16.5001 14.4377Z" fill="white"/>
</svg>
