<svg width="22" height="22" viewBox="0 0 22 22" fill="none" xmlns="http://www.w3.org/2000/svg">
<path d="M14.2173 2.59375H7.78234C5.49984 2.59375 4.99567 3.73042 4.70234 5.12375L3.6665 10.0829H18.3332L17.2973 5.12375C17.004 3.73042 16.4998 2.59375 14.2173 2.59375Z" stroke="#CF172F" stroke-linecap="round" stroke-linejoin="round"/>
<path d="M20.1575 18.168C20.2583 19.2405 19.3967 20.1663 18.2967 20.1663H16.5733C15.5833 20.1663 15.4458 19.7447 15.2717 19.2222L15.0883 18.6722C14.8317 17.9205 14.6667 17.4163 13.3467 17.4163H8.65334C7.33334 17.4163 7.14084 17.9847 6.91167 18.6722L6.72834 19.2222C6.55417 19.7447 6.41667 20.1663 5.42667 20.1663H3.70334C2.60334 20.1663 1.74167 19.2405 1.8425 18.168L2.35584 12.5855C2.48417 11.2105 2.75 10.083 5.15167 10.083H16.8483C19.25 10.083 19.5158 11.2105 19.6442 12.5855L20.1575 18.168Z" stroke="#CF172F" stroke-linecap="round" stroke-linejoin="round"/>
<path d="M3.66667 7.33301H2.75" stroke="#CF172F" stroke-linecap="round" stroke-linejoin="round"/>
<path d="M19.2502 7.33301H18.3335" stroke="#CF172F" stroke-linecap="round" stroke-linejoin="round"/>
<path d="M11 2.75V4.58333" stroke="#CF172F" stroke-linecap="round" stroke-linejoin="round"/>
<path d="M9.625 4.58301H12.375" stroke="#CF172F" stroke-linecap="round" stroke-linejoin="round"/>
<path d="M5.5 13.75H8.25" stroke="#CF172F" stroke-linecap="round" stroke-linejoin="round"/>
<path d="M13.75 13.75H16.5" stroke="#CF172F" stroke-linecap="round" stroke-linejoin="round"/>
</svg>
