<svg width="20" height="20" viewBox="0 0 20 20" fill="none" xmlns="http://www.w3.org/2000/svg">
<path d="M16.8053 4.7837C16.7968 4.8135 16.8034 4.82339 16.8193 4.84636C16.8577 4.90182 17.1126 5.08803 17.1973 5.17865C17.9735 6.00924 18.0423 7.08309 17.9878 8.15572C17.9546 8.80994 17.8073 9.46949 17.5938 10.0877C17.1964 10.0646 16.8263 10.0486 16.4361 10.1429C16.1882 10.2029 15.8601 10.3262 15.6874 10.5132C16.3445 10.341 17.0033 10.3846 17.658 10.5455L17.4619 10.6417C17.6232 11.1126 17.6205 11.6814 17.2062 12.0253C13.4318 12.8389 10.0223 14.7176 7.06643 17.0692C6.26666 17.7055 5.53177 18.4225 4.6847 19C4.58818 18.1048 3.97165 17.4592 3.17862 17.0497C3.44541 16.2584 3.45453 15.4242 3.43609 14.5983C4.57738 14.5198 5.71247 14.0437 6.70998 13.5273C8.61583 12.5406 9.91939 11.4572 10.942 9.59591C11.4117 8.74104 12.3782 6.9835 11.0904 6.37987C10.0795 5.90597 8.04341 6.63773 6.9511 6.85656C5.71232 7.10473 4.43612 7.18656 3.17336 7.09362C3.10723 7.03044 3.44942 6.2621 3.51143 6.13696C4.41515 4.31308 6.36153 2.94343 8.34591 2.37479C8.49013 2.33345 8.84661 2.21414 8.97249 2.21513C9.02006 2.21551 9.03315 2.21965 9.06899 2.24904C9.13043 2.29945 9.29528 2.57848 9.38208 2.6754C9.55442 2.86781 9.81098 3.08285 10.0339 3.21866C10.3503 3.41142 10.435 3.39927 10.8113 3.39004C12.2542 3.35468 13.7787 3.50393 15.108 4.08989C15.3634 4.2025 15.5983 4.35018 15.8516 4.46505C14.8632 3.66617 13.5275 3.2186 12.251 3.076C11.7316 3.01796 11.2545 3.04093 10.744 3.04064C10.5252 3.04049 10.0358 2.66655 9.89306 2.49944C9.85073 2.44986 9.65814 2.18029 9.64442 2.13733C9.62489 2.07606 9.65793 2.0964 9.69343 2.09115C12.325 1.70253 14.2438 2.6016 16.3544 3.93313C16.5081 4.0301 16.7676 4.18301 16.8645 4.32799C16.971 4.48727 17.0249 4.6992 16.8054 4.78373L16.8053 4.7837ZM4.71714 17.6701V17.2109C4.71714 17.0304 4.89231 16.5314 4.97418 16.3504C5.52036 15.1429 6.71383 14.7168 7.78881 14.0608C9.03026 13.3032 10.5484 12.3828 10.958 10.9414L10.7286 11.3219C9.61719 12.7922 7.84116 13.5668 6.28354 14.5096C5.05349 15.254 4.41533 16.0163 4.66102 17.5183C4.66719 17.556 4.66891 17.672 4.71711 17.6701H4.71714Z" fill="white"/>
<path d="M9.23962 11.1981C8.51254 11.9575 7.6168 12.5546 6.68064 13.0534C5.36614 13.7539 3.79594 14.4024 2.26435 14.1183C1.72003 11.9261 2.11316 9.60729 2.61908 7.44289C2.81799 7.47848 3.02476 7.52141 3.22668 7.53774C4.35681 7.62929 5.61448 7.53586 6.73038 7.33811C7.80316 7.14802 9.76877 6.46134 10.7715 6.75525C11.6546 7.01409 11.189 8.04944 10.9438 8.61365C10.5481 9.52401 9.93362 10.4733 9.23962 11.1981ZM11.0499 7.46389C11.0499 7.21868 10.8437 7.01989 10.5894 7.01989C10.335 7.01989 10.1288 7.21868 10.1288 7.46389C10.1288 7.70909 10.335 7.90788 10.5894 7.90788C10.8437 7.90788 11.0499 7.70909 11.0499 7.46389Z" fill="white"/>
<path d="M4.71933 17.6691C4.67116 17.6711 4.66941 17.5551 4.66324 17.5174C4.41755 16.0154 5.05571 15.253 6.28576 14.5086C7.84338 13.5659 9.61941 12.7912 10.7308 11.321L10.9602 10.9404C10.5506 12.3819 9.03248 13.3022 7.79103 14.0599C6.71605 14.7159 5.52258 15.142 4.9764 16.3495C4.89453 16.5305 4.71936 17.0295 4.71936 17.21V17.6691H4.71933Z" fill="white"/>
<path d="M10.5854 7.90606C10.8397 7.90606 11.0459 7.70728 11.0459 7.46206C11.0459 7.21685 10.8397 7.01807 10.5854 7.01807C10.3311 7.01807 10.1249 7.21685 10.1249 7.46206C10.1249 7.70728 10.3311 7.90606 10.5854 7.90606Z" fill="white"/>
</svg>
