<svg width="20" height="20" viewBox="0 0 20 20" fill="none" xmlns="http://www.w3.org/2000/svg">
<path d="M17.1835 5.2845C16.7782 7.22531 17.2159 5.06473 17.0397 5.06292C17.0138 5.09548 17.3536 5.48708 17.4021 5.56214C18.0795 6.59947 18.1043 7.88189 17.8548 9.04312C17.8006 9.29273 17.5692 9.82903 17.5602 10.0162C17.5478 10.2369 17.6889 10.4974 17.6516 10.8031C17.6234 11.0346 17.3592 11.6089 17.1165 11.6939C16.8399 11.7915 16.359 11.844 16.044 11.9227C12.6697 12.7647 9.8812 14.2795 7.22144 16.3234C6.70552 16.7204 6.22347 17.1627 5.69965 17.5507C5.46031 17.7279 4.92068 18.1846 4.62152 17.9187C4.49847 17.8102 4.52104 17.595 4.4804 17.4557C4.27832 16.7638 3.75676 16.3379 3.03876 16.0982C3.216 15.3042 3.24084 14.4613 2.96425 13.6844C2.77459 13.6066 2.39753 13.6672 2.29592 13.48C2.14916 13.2096 2.02837 12.2094 2.01143 11.8793C1.94595 10.633 2.16271 8.22284 2.63686 7.06071C2.72943 6.83371 2.8491 6.88345 3.08843 6.92596C3.76353 4.47598 6.30137 2.77664 8.89903 2.25481V2.07122C9.35625 2.03414 9.83943 1.96993 10.2944 2.01605C11.6435 2.01515 13.0987 2.27742 14.2964 2.85623C15.4355 3.407 15.7878 4.39368 17.1165 4.52663L17.1835 5.2845ZM9.70283 2.49719C9.66896 2.47096 8.89903 2.64551 8.85388 2.6446C8.73647 2.6446 8.4023 2.75041 8.26796 2.78659C6.41087 3.29305 4.58991 4.51396 3.74434 6.13914C3.68676 6.25038 3.36615 6.935 3.42824 6.99198C4.61023 7.07518 5.80464 7.00192 6.96292 6.78035C7.9846 6.585 9.89023 5.93294 10.8363 6.35529C12.0408 6.8934 11.1366 8.45979 10.6974 9.22128C9.74009 10.8799 8.52084 11.8458 6.73713 12.7249C5.80351 13.1852 4.74118 13.6094 3.67322 13.679C3.69015 14.4152 3.68225 15.1586 3.43276 15.864C4.17446 16.2294 4.75135 16.8045 4.84166 17.6022C5.63417 17.0876 6.32169 16.4482 7.07017 15.8812C9.83605 13.7857 13.0264 12.1108 16.5588 11.3864C16.946 11.0798 16.9494 10.5733 16.7982 10.1537L16.9822 10.0678C16.3692 9.92399 15.7528 9.8851 15.1386 10.0388C15.3001 9.87244 15.6071 9.7621 15.8397 9.70875C16.2043 9.62464 16.5509 9.63911 16.9235 9.65991C17.1233 9.10914 17.261 8.52129 17.2926 7.93796C17.3434 6.98203 17.2791 6.02519 16.5532 5.2845C16.4742 5.20401 16.2359 5.0376 16.1998 4.98877C16.1851 4.96796 16.1784 4.95983 16.1863 4.93269C16.3917 4.85763 16.3409 4.66861 16.2416 4.52663C16.1513 4.3973 15.9086 4.26074 15.7641 4.17482C13.7896 2.98827 11.9934 2.18698 9.53124 2.53336C9.4985 2.53788 9.46689 2.5198 9.48495 2.57496M9.1903 10.6385C9.83943 9.99272 10.4152 9.14622 10.7855 8.33499C11.0146 7.83215 11.4504 6.90968 10.624 6.67906C9.6859 6.41679 7.84687 7.02906 6.84212 7.19818C5.79786 7.37453 4.62152 7.45773 3.56371 7.37634C3.37518 7.36187 3.181 7.32389 2.99473 7.29223C2.52171 9.22128 2.15368 11.2878 2.66282 13.2413C4.09657 13.4945 5.5653 12.9166 6.79584 12.2926C7.67189 11.8476 8.50955 11.3149 9.1903 10.6385Z" fill="#D01730"/>
<path d="M9.70283 2.49719C9.66896 2.47096 8.89903 2.64551 8.85388 2.6446C8.73647 2.6446 8.4023 2.75041 8.26796 2.78659C6.41087 3.29305 4.58991 4.51396 3.74434 6.13914C3.68676 6.25038 3.36615 6.935 3.42824 6.99198C4.61023 7.07518 5.80464 7.00192 6.96292 6.78035C7.9846 6.585 9.89023 5.93294 10.8363 6.35529C12.0408 6.8934 11.1366 8.45979 10.6974 9.22128C9.74009 10.8799 8.52084 11.8458 6.73713 12.7249C5.80351 13.1852 4.74118 13.6094 3.67322 13.679C3.69015 14.4152 3.68225 15.1586 3.43276 15.864C4.17446 16.2294 4.75135 16.8045 4.84166 17.6022C5.63417 17.0876 6.32169 16.4482 7.07017 15.8812C9.83605 13.7857 13.0264 12.1108 16.5588 11.3864C16.946 11.0798 16.9494 10.5733 16.7982 10.1537L16.9822 10.0678C16.3692 9.92399 15.7528 9.8851 15.1386 10.0388C15.3001 9.87244 15.6071 9.76211 15.8397 9.70875C16.2043 9.62464 16.5509 9.63911 16.9235 9.65991C17.1233 9.10914 17.261 8.52129 17.2926 7.93796C17.3434 6.98203 17.2791 6.02519 16.5532 5.2845C16.4742 5.20401 16.2359 5.0376 16.1998 4.98877C16.1851 4.96796 16.1784 4.95983 16.1863 4.93269C16.3917 4.85763 16.3409 4.66861 16.2416 4.52663C16.1513 4.3973 15.9086 4.26074 15.7641 4.17482C13.7896 2.98827 11.9934 2.18698 9.53124 2.53336C9.4985 2.53788 9.46689 2.5198 9.48495 2.57496M17.1835 5.2845C16.7782 7.22531 17.2159 5.06473 17.0397 5.06292C17.0138 5.09548 17.3536 5.48708 17.4021 5.56214C18.0795 6.59947 18.1043 7.88189 17.8548 9.04312C17.8006 9.29273 17.5692 9.82903 17.5602 10.0162C17.5478 10.2369 17.6889 10.4974 17.6516 10.8031C17.6234 11.0346 17.3592 11.6089 17.1165 11.6939C16.8399 11.7915 16.359 11.844 16.044 11.9227C12.6697 12.7647 9.8812 14.2795 7.22144 16.3234C6.70552 16.7204 6.22347 17.1627 5.69965 17.5507C5.46031 17.7279 4.92068 18.1846 4.62152 17.9187C4.49847 17.8102 4.52104 17.595 4.4804 17.4557C4.27832 16.7638 3.75676 16.3379 3.03876 16.0982C3.216 15.3042 3.24084 14.4613 2.96425 13.6844C2.77459 13.6066 2.39753 13.6672 2.29592 13.48C2.14916 13.2096 2.02837 12.2094 2.01143 11.8793C1.94595 10.633 2.16271 8.22284 2.63686 7.06071C2.72943 6.83371 2.8491 6.88345 3.08843 6.92596C3.76353 4.47598 6.30137 2.77664 8.89903 2.25481V2.07122C9.35625 2.03414 9.83943 1.96993 10.2944 2.01605C11.6435 2.01515 13.0987 2.27742 14.2964 2.85623C15.4355 3.407 15.7878 4.39368 17.1165 4.52663L17.1835 5.2845ZM9.1903 10.6385C9.83943 9.99272 10.4152 9.14622 10.7855 8.33499C11.0146 7.83215 11.4504 6.90968 10.624 6.67906C9.6859 6.41679 7.84687 7.02906 6.84212 7.19818C5.79786 7.37453 4.62152 7.45773 3.56371 7.37634C3.37518 7.36187 3.181 7.32389 2.99473 7.29223C2.52171 9.22128 2.15368 11.2878 2.66282 13.2413C4.09657 13.4945 5.5653 12.9166 6.79584 12.2926C7.67189 11.8476 8.50955 11.3149 9.1903 10.6385Z" stroke="#D01730" stroke-width="0.5" stroke-miterlimit="10"/>
</svg>
