<svg width="20" height="20" viewBox="0 0 20 20" fill="none" xmlns="http://www.w3.org/2000/svg">
<path d="M16.7004 5.68373L11.9004 2.3254C10.592 1.40873 8.58369 1.45873 7.32536 2.43373L3.15036 5.69206C2.31702 6.34206 1.65869 7.6754 1.65869 8.7254V14.4754C1.65869 16.6004 3.38369 18.3337 5.50869 18.3337H14.492C16.617 18.3337 18.342 16.6087 18.342 14.4837V8.83373C18.342 7.70873 17.617 6.3254 16.7004 5.68373ZM10.6254 15.0004C10.6254 15.3421 10.342 15.6254 10.0004 15.6254C9.65869 15.6254 9.37536 15.3421 9.37536 15.0004V12.5004C9.37536 12.1587 9.65869 11.8754 10.0004 11.8754C10.342 11.8754 10.6254 12.1587 10.6254 12.5004V15.0004Z" fill="white"/>
</svg>
