<svg width="22" height="22" viewBox="0 0 22 22" fill="none" xmlns="http://www.w3.org/2000/svg">
<g clip-path="url(#clip0_291_7915)">
<path d="M15.499 9.10435C15.3368 9.26346 15.1186 9.35259 14.8913 9.35259C14.664 9.35259 14.4458 9.26346 14.2835 9.10435L12.8948 7.7156C12.7357 7.55332 12.6466 7.33512 12.6466 7.10785C12.6466 6.88058 12.7357 6.66238 12.8948 6.5001L15.2295 4.16443C15.6824 3.71068 15.5348 2.94802 14.9032 2.83893C14.0766 2.6964 13.2278 2.75561 12.429 3.01154C11.6302 3.26747 10.905 3.71254 10.3151 4.30889C9.72525 4.90525 9.28813 5.63525 9.04094 6.43681C8.79376 7.23836 8.74382 8.08776 8.89537 8.91276C9.03287 9.66443 8.91554 10.4775 8.37654 11.0174L3.27346 16.1196C3.09674 16.2894 2.95567 16.4927 2.8585 16.7177C2.76133 16.9427 2.71001 17.1848 2.70756 17.4298C2.70511 17.6749 2.75157 17.9179 2.84421 18.1448C2.93686 18.3717 3.07384 18.5778 3.24712 18.7511C3.42041 18.9244 3.62652 19.0614 3.8534 19.154C4.08027 19.2467 4.32335 19.2931 4.56841 19.2907C4.81346 19.2882 5.05556 19.2369 5.28053 19.1397C5.50551 19.0426 5.70884 18.9015 5.87863 18.7248L10.9808 13.6217C11.5207 13.0827 12.3347 12.9653 13.0855 13.1028C13.9104 13.254 14.7596 13.2037 15.561 12.9564C16.3623 12.709 17.0921 12.2719 17.6884 11.6821C18.2846 11.0924 18.7297 10.3674 18.9858 9.56877C19.2419 8.77016 19.3014 7.92155 19.1593 7.09502C19.0493 6.46343 18.2875 6.31585 17.8338 6.76868L15.499 9.10435Z" fill="white" stroke="white" stroke-linecap="round" stroke-linejoin="round"/>
</g>
<defs>
<clipPath id="clip0_291_7915">
<rect width="22" height="22" fill="white" transform="translate(22) rotate(90)"/>
</clipPath>
</defs>
</svg>
