<svg width="22" height="22" viewBox="0 0 22 22" fill="none" xmlns="http://www.w3.org/2000/svg">
<path d="M15.5134 9.09117C15.3512 9.25028 15.133 9.3394 14.9057 9.3394C14.6784 9.3394 14.4602 9.25028 14.2979 9.09117L12.9092 7.70242C12.7501 7.54014 12.661 7.32193 12.661 7.09467C12.661 6.8674 12.7501 6.64919 12.9092 6.48692L15.2439 4.15125C15.6968 3.6975 15.5492 2.93483 14.9176 2.82575C14.091 2.68321 13.2422 2.74243 12.4434 2.99836C11.6446 3.25428 10.9194 3.69935 10.3295 4.29571C9.73965 4.89207 9.30253 5.62207 9.05534 6.42362C8.80816 7.22518 8.75822 8.07458 8.90978 8.89958C9.04728 9.65125 8.92995 10.4643 8.39095 11.0042L3.28786 16.1064C3.11114 16.2762 2.97007 16.4795 2.8729 16.7045C2.77573 16.9295 2.72442 17.1716 2.72196 17.4166C2.71951 17.6617 2.76597 17.9048 2.85862 18.1316C2.95126 18.3585 3.08824 18.5646 3.26153 18.7379C3.43481 18.9112 3.64093 19.0482 3.8678 19.1408C4.09468 19.2335 4.33776 19.2799 4.58281 19.2775C4.82786 19.275 5.06996 19.2237 5.29494 19.1265C5.51991 19.0294 5.72324 18.8883 5.89303 18.7116L10.9952 13.6085C11.5351 13.0695 12.3491 12.9522 13.0999 13.0897C13.9248 13.2408 14.774 13.1905 15.5754 12.9432C16.3767 12.6958 17.1065 12.2587 17.7028 11.6689C18.299 11.0792 18.7441 10.3542 19.0002 9.55559C19.2563 8.75698 19.3158 7.90836 19.1737 7.08183C19.0637 6.45025 18.3019 6.30267 17.8482 6.7555L15.5134 9.09117Z" stroke="#CF172F" stroke-linecap="round" stroke-linejoin="round"/>
</svg>
